<svg id="Layer_1" data-name="Layer 1" xmlns="http://www.w3.org/2000/svg" viewBox="0 0 415.06 413.79"><defs><style>.cls-1{fill:#fff;}</style></defs><title>ndicon</title><path class="cls-1" d="M222.64,606.79h-2a28.05,28.05,0,0,1-28.05-28V399.88a137.39,137.39,0,0,1,2-23.44c.5-2.83,1-5.66,1.46-8.49,15.17-90.53,87.13-162.23,178.24-173.34,119.27-14.53,218.2,71.21,231.48,177.75,8.72,69.92-13.3,129.32-64.37,177.71-34.83,33-76.48,51.15-124.34,55C417,605.08,417,605,222.64,606.79Zm325.69-199.3c-.92-7.38-1.26-14.9-2.89-22.13-3.58-16-12.91-23.12-29.4-22.8a109.8,109.8,0,0,0-18.49,2.2c-23.21,4.48-46.23,10.05-69.56,13.65-31.61,4.87-62.6-1.25-93.44-7.86-13.71-2.94-27.48-5.77-41.36-7.62a35.46,35.46,0,0,0-39.74,30.94,118.49,118.49,0,0,0,.61,30.39c2.93,20.27,13.32,28.57,33.48,26.07,15.68-1.93,31.19-5.61,46.6-9.25,29.53-7,59.23-13,89.59-7.8,24.81,4.22,49.3,10.28,74,15.4C533.9,456.2,547.65,444.84,548.33,407.49Z" transform="translate(-192.54 -193)"/><path class="cls-1" d="M329.43,407.19a20.86,20.86,0,1,1-21-20.59A20.93,20.93,0,0,1,329.43,407.19Z" transform="translate(-192.54 -193)"/><path class="cls-1" d="M512.55,407.87a21,21,0,0,1-21,20.52,20.62,20.62,0,0,1-20.65-20.71,20.84,20.84,0,0,1,21.31-21.07A21.2,21.2,0,0,1,512.55,407.87Z" transform="translate(-192.54 -193)"/></svg>