<svg id="Layer_4" data-name="Layer 4" xmlns="http://www.w3.org/2000/svg" viewBox="0 0 429.57 429.57"><defs><style>.cls-1{fill:#fff;}</style></defs><title>NDALERT</title><path class="cls-1" d="M500,271.71c-118.62,0-214.79,96.17-214.79,214.79S381.38,701.29,500,701.29,714.79,605.12,714.79,486.5,618.57,271.85,500,271.71Zm0,342.11a18,18,0,1,1,18-18h0a18,18,0,0,1-18,18ZM526.36,387,519,524.37a19,19,0,0,1-19,18h0a19,19,0,0,1-19-18L473.64,387a26.39,26.39,0,0,1,24.94-27.77c.47,0,.95,0,1.42,0h0a26.4,26.4,0,0,1,26.4,26.4C526.4,386.05,526.38,386.52,526.36,387Z" transform="translate(-285.21 -271.71)"/></svg>