<?xml version="1.0" encoding="utf-8"?>
<!-- Generator: Adobe Illustrator 23.0.2, SVG Export Plug-In . SVG Version: 6.00 Build 0)  -->
<svg version="1.1" xmlns="http://www.w3.org/2000/svg" xmlns:xlink="http://www.w3.org/1999/xlink" x="0px" y="0px"
	 viewBox="0 0 500 500" style="enable-background:new 0 0 500 500;" xml:space="preserve">
<style type="text/css">
	.st0{fill:none;}
	.st1{fill:#E0DFDF;}
	.st2{fill:#D4D1D1;}
	.st3{display:none;}
	.st4{display:inline;fill:#66B3F0;}
	.st5{display:inline;}
	.st6{display:inline;fill:#A7ACBF;}
	.st7{display:none;fill:#A7ACBF;}
	.st8{fill:#A7ACBF;}
	.st9{font-family:'Poppins-Regular';}
	.st10{font-size:3.5396px;}
	.st11{fill:#78D2DE;}
	.st12{fill:#3E4457;}
	.st13{fill:none;stroke:#A7ACBF;stroke-width:0.75;stroke-linecap:round;stroke-miterlimit:10;}
	.st14{display:inline;fill:none;stroke:#A7ACBF;stroke-width:0.75;stroke-linecap:round;stroke-miterlimit:10;}
	.st15{display:inline;fill:#D5DCF5;}
	.st16{font-family:'Poppins-Medium';}
	.st17{font-size:6px;}
	.st18{fill:none;stroke:#D5DCF5;stroke-linecap:round;stroke-miterlimit:10;}
	.st19{fill:#D5DCF5;}
	.st20{font-size:18.2497px;}
	.st21{font-family:'Poppins-SemiBold';}
	.st22{font-size:5.3228px;}
	.st23{fill:none;stroke:#A7ACBF;stroke-width:0.5;stroke-linecap:round;stroke-miterlimit:10;}
	.st24{font-family:'Poppins-Light';}
	.st25{font-size:3px;}
	.st26{font-size:8px;}
	.st27{font-size:4.5px;}
	.st28{font-size:4px;}
	.st29{fill:none;stroke:#78D2DE;stroke-width:0.5;stroke-linecap:round;stroke-miterlimit:10;}
	.st30{opacity:0.7;fill:none;stroke:#A7ACBF;stroke-width:0.5;stroke-linecap:round;stroke-miterlimit:10;}
	.st31{fill:#C771D1;}
	.st32{clip-path:url(#SVGID_6_);}
	.st33{opacity:0.84;fill:url(#SVGID_7_);}
	.st34{opacity:0.1;}
	.st35{fill:url(#SVGID_10_);}
	.st36{fill:url(#SVGID_11_);}
	.st37{display:inline;fill:url(#SVGID_12_);}
	.st38{display:inline;opacity:0.1;}
	.st39{display:inline;opacity:0.15;}
	.st40{display:inline;fill:url(#SVGID_13_);}
	.st41{display:inline;opacity:5.000000e-02;}
	.st42{opacity:0.95;}
	.st43{fill:#FFFFFF;}
	.st44{display:inline;fill:#6F4C9F;}
	.st45{font-family:'Manrope-Bold';}
	.st46{font-size:28.5381px;}
	.st47{fill:url(#SVGID_14_);}
	.st48{fill:url(#SVGID_15_);}
	.st49{fill:url(#SVGID_16_);}
	.st50{fill:#66B3F0;}
	.st51{display:inline;opacity:0.95;fill:#FFFFFF;}
	.st52{display:inline;opacity:0.95;}
	.st53{fill:url(#SVGID_17_);}
	.st54{fill:url(#SVGID_18_);}
	.st55{fill:url(#SVGID_19_);}
	.st56{display:none;opacity:0.95;}
	.st57{display:inline;fill:#FFFFFF;}
	.st58{display:inline;fill:#6DBDF9;}
	.st59{display:inline;fill:#75C4FA;}
	.st60{display:inline;fill:#7FCBFA;}
	.st61{display:inline;fill:#8BD2FA;}
	.st62{display:inline;fill:#9AD9FC;}
	.st63{display:inline;fill:#ABDFFC;}
	.st64{display:inline;fill:#5671F8;}
	.st65{display:inline;fill:#DF754A;}
	.st66{display:inline;fill:#6B48F7;}
	.st67{display:inline;fill:#DB48C7;}
	.st68{display:inline;fill:#98FCD2;}
	.st69{display:inline;fill:#E28761;}
</style>
<pattern  width="17.6" height="17.6" patternUnits="userSpaceOnUse" id="New_Pattern_Swatch_4" viewBox="0 -17.6 17.6 17.6" style="overflow:visible;">
	<g>
		<rect y="-17.6" class="st0" width="17.6" height="17.6"/>
		<g>
			<rect x="0" y="-17.6" class="st1" width="8.8" height="8.8"/>
		</g>
		<g>
			<rect x="8.8" y="-17.6" class="st2" width="8.8" height="8.8"/>
		</g>
		<g>
			<rect x="8.8" y="-8.8" class="st1" width="8.8" height="8.8"/>
		</g>
		<g>
			<rect x="0" y="-8.8" class="st2" width="8.8" height="8.8"/>
		</g>
	</g>
</pattern>
<g id="BACKGROUND" class="st3">
	<rect y="0" class="st4" width="500" height="500"/>
</g>
<g id="OBJECTS" class="st3">
	<g class="st5">
		<g class="st3">
			
				<image style="display:inline;overflow:visible;opacity:0.3;" width="268" height="496" xlink:href="21E9CF2D.png"  transform="matrix(1 0 0 1 -64.8206 11.6985)">
			</image>
			<g class="st5">
				<g>
					<defs>
						<path id="SVGID_1_" d="M149.6,469.1H-15.3c-8.2,0-14.9-6.7-14.9-14.9v-393c0-8.2,6.7-14.9,14.9-14.9h164.9
							c8.2,0,14.9,6.7,14.9,14.9v393C164.6,462.4,157.9,469.1,149.6,469.1z"/>
					</defs>
					<use xlink:href="#SVGID_1_"  style="overflow:visible;fill:#3E4457;"/>
					<clipPath id="SVGID_2_">
						<use xlink:href="#SVGID_1_"  style="overflow:visible;"/>
					</clipPath>
				</g>
			</g>
		</g>
		<g class="st3">
			<path class="st6" d="M281,459.6h-62c-0.7,0-1.2-0.5-1.2-1.2s0.5-1.2,1.2-1.2h62c0.7,0,1.2,0.5,1.2,1.2S281.6,459.6,281,459.6z"/>
		</g>
		<g class="st3">
			<path class="st6" d="M247.9,443.5c-2,0-3.6-1.6-3.6-3.6c0-2,1.6-3.6,3.6-3.6c2,0,3.6,1.6,3.6,3.6
				C251.5,441.9,249.9,443.5,247.9,443.5z M247.9,436.7c-1.7,0-3.1,1.4-3.1,3.1c0,1.7,1.4,3.1,3.1,3.1c1.7,0,3.1-1.4,3.1-3.1
				C251,438.1,249.6,436.7,247.9,436.7z"/>
			<path class="st6" d="M250,439.9c0,1.2-1,2.2-2.2,2.2c-1.2,0-2.2-1-2.2-2.2c0-1.2,1-2.2,2.2-2.2C249,437.7,250,438.7,250,439.9z"
				/>
		</g>
		<path class="st7" d="M204.2,441.9h-4.8c-0.2,0-0.4-0.2-0.4-0.5v-4.8c0-0.2,0.2-0.5,0.4-0.5h4.8c0.2,0,0.4,0.2,0.4,0.5v4.8
			C204.7,441.7,204.5,441.9,204.2,441.9z"/>
		<path class="st7" d="M296.1,442.4l-4.7-3.2c-0.1-0.1-0.1-0.3,0-0.4l4.7-3.2c0.2-0.1,0.4,0,0.4,0.2v6.4
			C296.5,442.4,296.3,442.6,296.1,442.4z"/>
		<g class="st3">
			<g class="st5">
				<path class="st8" d="M296.9,58.6c-0.2,0.2-0.5,0.1-0.7-0.1c-0.2-0.2-0.1-0.5,0.1-0.7c0.2-0.2,0.5-0.1,0.7,0.1
					C297.2,58.1,297.1,58.4,296.9,58.6z"/>
				<g>
					<path class="st8" d="M301,54.6c-0.1,0-0.2,0-0.2-0.1c-1-1-2.2-1.6-3.6-1.7c-1.7-0.2-3.4,0.4-4.7,1.6c-0.1,0.1-0.3,0.1-0.4,0
						c-0.1-0.1-0.1-0.3,0-0.4c1.4-1.3,3.3-1.9,5.2-1.7c1.5,0.2,2.9,0.8,3.9,1.9c0.1,0.1,0.1,0.3,0,0.4
						C301.2,54.6,301.1,54.6,301,54.6z"/>
					<path class="st8" d="M299.7,55.9c-0.1,0-0.2,0-0.2-0.1c-0.7-0.7-1.5-1.1-2.5-1.2c-1.2-0.1-2.4,0.3-3.2,1.1
						c-0.1,0.1-0.3,0.1-0.4,0c-0.1-0.1-0.1-0.3,0-0.4c1-0.9,2.3-1.4,3.7-1.2c1.1,0.1,2.1,0.6,2.8,1.4c0.1,0.1,0.1,0.3,0,0.4
						C299.8,55.9,299.8,55.9,299.7,55.9z"/>
					<path class="st8" d="M298.4,57.2c-0.1,0-0.2,0-0.2-0.1c-0.4-0.4-0.8-0.6-1.4-0.7c-0.7-0.1-1.3,0.2-1.8,0.6
						c-0.1,0.1-0.3,0.1-0.4,0c-0.1-0.1-0.1-0.3,0-0.4c0.6-0.6,1.4-0.9,2.3-0.8c0.7,0.1,1.3,0.4,1.7,0.8c0.1,0.1,0.1,0.3,0,0.4
						C298.5,57.2,298.5,57.2,298.4,57.2z"/>
				</g>
			</g>
		</g>
		<g class="st3">
			<g class="st5">
				<path class="st8" d="M330.7,59.4h-17.9c-2,0-3.6-1.6-3.6-3.6v-0.2c0-2,1.6-3.6,3.6-3.6h17.9c2,0,3.6,1.6,3.6,3.6v0.2
					C334.3,57.8,332.7,59.4,330.7,59.4z M312.7,52.4c-1.6,0-3,1.4-3,3.2v0.3c0,1.8,1.3,3.2,3,3.2h18.2c1.6,0,3-1.4,3-3.2v-0.3
					c0-1.8-1.3-3.2-3-3.2H312.7z"/>
				<text transform="matrix(1 0 0 1 324.9854 56.9349)" class="st8 st9 st10">24%</text>
				<path class="st11" d="M316.2,57.8h-3.1c-1.2,0-2.1-1-2.1-2.1l0,0c0-1.2,1-2.1,2.1-2.1h3.1c1.2,0,2.1,1,2.1,2.1v0
					C318.4,56.9,317.4,57.8,316.2,57.8z"/>
			</g>
		</g>
		<g class="st3">
			<g class="st5">
				<g>
					<g>
						<g>
							<image style="overflow:visible;" width="102" height="105" xlink:href="21E9CF2F.png"  transform="matrix(1 0 0 1 219 176)">
							</image>
						</g>
						<g>
							
								<image style="overflow:visible;opacity:0.4;" width="48" height="49" xlink:href="21E9CF2A.png"  transform="matrix(1 0 0 1 250 207)">
							</image>
							<g>
								<path class="st12" d="M280.7,244.3h-17.6c-3.1,0-5.6-2.5-5.6-5.6v-18.6c0-3.1,2.5-5.6,5.6-5.6h17.6c3.1,0,5.6,2.5,5.6,5.6
									v18.6C286.3,241.8,283.8,244.3,280.7,244.3z"/>
							</g>
						</g>
					</g>
				</g>
			</g>
			<g class="st5">
				<g>
					<line class="st13" x1="268.5" y1="225.2" x2="268.5" y2="223.2"/>
					<line class="st13" x1="274.6" y1="225.2" x2="274.6" y2="223.2"/>
				</g>
				<path class="st13" d="M275.6,234.9h-8c-1,0-1.9-0.8-1.9-1.9v-7c0-1,0.8-1.9,1.9-1.9h8c1,0,1.9,0.8,1.9,1.9v7
					C277.4,234.1,276.6,234.9,275.6,234.9z"/>
				<line class="st13" x1="265.7" y1="227.3" x2="277.4" y2="227.3"/>
				<g>
					<line class="st13" x1="268.9" y1="230.1" x2="269" y2="230.1"/>
					<line class="st13" x1="268.9" y1="232.1" x2="269" y2="232.1"/>
					<line class="st13" x1="271.6" y1="230.1" x2="271.7" y2="230.1"/>
					<line class="st13" x1="271.6" y1="232.1" x2="271.7" y2="232.1"/>
					<line class="st13" x1="274.3" y1="230.1" x2="274.4" y2="230.1"/>
					<line class="st13" x1="274.3" y1="232.1" x2="274.4" y2="232.1"/>
				</g>
			</g>
		</g>
		<g class="st3">
			<g class="st5">
				<g>
					<g>
						<g>
							<image style="overflow:visible;" width="101" height="105" xlink:href="21E9CF2B.png"  transform="matrix(1 0 0 1 265 176)">
							</image>
						</g>
						<g>
							
								<image style="overflow:visible;opacity:0.4;" width="48" height="49" xlink:href="21E9CF35.png"  transform="matrix(1 0 0 1 295 207)">
							</image>
							<g>
								<path class="st12" d="M325.8,244.3h-17.6c-3.1,0-5.6-2.5-5.6-5.6v-18.6c0-3.1,2.5-5.6,5.6-5.6h17.6c3.1,0,5.6,2.5,5.6,5.6
									v18.6C331.5,241.8,328.9,244.3,325.8,244.3z"/>
							</g>
						</g>
					</g>
				</g>
			</g>
			<g class="st5">
				<path class="st13" d="M321,232.9h1.3c1.3,0,2.3-1,2.3-2.3c0-1.3-1-2.3-2.3-2.3c0,0,0,0-0.1,0c-0.4-2.3-2.3-4-4.7-4
					c-1.9,0-3.5,1.1-4.2,2.6c-0.3-0.1-0.5-0.1-0.8-0.1c-1.7,0-3,1.4-3,3c0,1.7,1.4,3,3,3c0,0,0.3,0,0.6,0"/>
				<g>
					<g>
						<path class="st13" d="M319.1,231.6l-2-2.1c-0.1-0.1-0.1-0.1-0.2,0l-2,2.1"/>
						<line class="st13" x1="317" y1="229.5" x2="317" y2="235"/>
					</g>
				</g>
			</g>
		</g>
		<g class="st3">
			<g class="st5">
				<g>
					<g>
						<g>
							<image style="overflow:visible;" width="102" height="104" xlink:href="21E9CF37.png"  transform="matrix(1 0 0 1 219 264)">
							</image>
						</g>
						<g>
							
								<image style="overflow:visible;opacity:0.4;" width="48" height="49" xlink:href="21E9CF3A.png"  transform="matrix(1 0 0 1 250 294)">
							</image>
							<g>
								<path class="st12" d="M280.7,331.5h-17.6c-3.1,0-5.6-2.5-5.6-5.6v-18.6c0-3.1,2.5-5.6,5.6-5.6h17.6c3.1,0,5.6,2.5,5.6,5.6
									v18.6C286.3,329,283.8,331.5,280.7,331.5z"/>
							</g>
						</g>
					</g>
				</g>
			</g>
			<g class="st5">
				<path class="st13" d="M278.5,316.6c0,3.6-2.9,6.6-6.6,6.6c-3.6,0-6.6-2.9-6.6-6.6c0-3.6,2.9-6.6,6.6-6.6
					C275.5,310,278.5,313,278.5,316.6z"/>
				<path class="st13" d="M271.5,323.1c-2-1.2-3.4-3.6-3.4-6.3c0-2.9,1.6-5.4,3.8-6.5"/>
				<path class="st13" d="M271.7,310.2c2.3,1.1,4,3.6,4,6.6c0,2.7-1.4,5.1-3.4,6.3"/>
				<line class="st13" x1="271.9" y1="310" x2="271.9" y2="323.1"/>
				<line class="st13" x1="265.9" y1="314.7" x2="278" y2="314.7"/>
				<line class="st13" x1="265.8" y1="318.9" x2="278" y2="318.9"/>
			</g>
		</g>
		<g class="st3">
			<g class="st5">
				<g>
					<g>
						<g>
							<image style="overflow:visible;" width="101" height="104" xlink:href="21E9CF3B.png"  transform="matrix(1 0 0 1 265 264)">
							</image>
						</g>
						<g>
							
								<image style="overflow:visible;opacity:0.4;" width="48" height="49" xlink:href="21E9CF3D.png"  transform="matrix(1 0 0 1 295 294)">
							</image>
							<g>
								<path class="st12" d="M325.8,331.5h-17.6c-3.1,0-5.6-2.5-5.6-5.6v-18.6c0-3.1,2.5-5.6,5.6-5.6h17.6c3.1,0,5.6,2.5,5.6,5.6
									v18.6C331.5,329,328.9,331.5,325.8,331.5z"/>
							</g>
						</g>
					</g>
				</g>
			</g>
			<g class="st5">
				<circle class="st13" cx="317" cy="315.5" r="2.2"/>
				<path class="st13" d="M322.4,315.1c-0.2-2.7-2.4-4.9-5.1-5c-0.1,0-0.4,0-0.5,0c-2.7,0.1-4.9,2.3-5.1,5c-0.1,1.7,0.7,2.8,1.8,4.3
					c0.5,0.6,2.4,2.8,2.8,3.2c0.2,0.2,0.4,0.3,0.7,0.3c0.2,0,0.5-0.1,0.7-0.3c0.4-0.4,2.4-2.6,2.8-3.2
					C321.6,318,322.5,316.9,322.4,315.1z"/>
			</g>
		</g>
		<g class="st3">
			<g class="st5">
				<g>
					<g>
						<g>
							<image style="overflow:visible;" width="102" height="104" xlink:href="E6CAF186.png"  transform="matrix(1 0 0 1 219 220)">
							</image>
						</g>
						<g>
							
								<image style="overflow:visible;opacity:0.4;" width="48" height="49" xlink:href="E6CAF181.png"  transform="matrix(1 0 0 1 250 250)">
							</image>
							<g>
								<path class="st12" d="M280.7,287.6h-17.6c-3.1,0-5.6-2.5-5.6-5.6v-18.6c0-3.1,2.5-5.6,5.6-5.6h17.6c3.1,0,5.6,2.5,5.6,5.6
									V282C286.3,285.1,283.8,287.6,280.7,287.6z"/>
							</g>
						</g>
					</g>
				</g>
			</g>
			<path class="st14" d="M270.9,275.2l2.6-2.6c0.1-0.1,0.3-0.1,0.4-0.1c1.2,0.4,2.6,0.1,3.5-0.8c0.7-0.7,1.1-1.6,1.1-2.5
				c0-0.4-0.5-0.6-0.7-0.3l-1.2,1.2c-0.3,0.3-0.6,0.3-0.7,0.1l-2-2c-0.2-0.2-0.2-0.4,0-0.6l1.3-1.3c0.3-0.3,0.1-0.7-0.3-0.7
				c-0.9,0-1.7,0.4-2.4,1c-1,1-1.3,2.4-0.9,3.6c0.1,0.2,0,0.3-0.1,0.5l-2.6,2.6c-0.1,0.1-0.3,0.1-0.4,0.1c-1.2-0.4-2.6-0.1-3.5,0.8
				c-0.7,0.7-1.1,1.6-1.1,2.5c0,0.4,0.5,0.6,0.7,0.3l1.3-1.3c0.2-0.2,0.4-0.2,0.6,0l2,2c0.2,0.2,0.2,0.4,0,0.6l-1.3,1.3
				c-0.3,0.3-0.1,0.7,0.3,0.7c0.9,0,1.7-0.4,2.4-1c1-1,1.3-2.4,0.9-3.6C270.8,275.5,270.8,275.4,270.9,275.2z"/>
		</g>
		<g class="st3">
			<text transform="matrix(1 0 0 1 174.1916 190.5837)" class="st15 st16 st17">Rainy</text>
		</g>
		<g class="st3">
			<g class="st5">
				<line class="st18" x1="321.6" y1="184.1" x2="319.8" y2="187.7"/>
				<line class="st18" x1="318.4" y1="186.4" x2="316.6" y2="190"/>
				<line class="st18" x1="314.4" y1="186.4" x2="312.5" y2="190"/>
				<line class="st18" x1="317.5" y1="184.1" x2="315.7" y2="187.7"/>
				<line class="st18" x1="313.4" y1="184.1" x2="311.6" y2="187.7"/>
				<path class="st18" d="M323,185.9c0.9,0,1.9-0.6,2.3-1.4c1.1-2-0.3-4.1-2.3-4.1c0,0-0.2,0-0.3,0c-0.1,0-0.1,0-0.1,0
					c-0.4-2.6-2.3-4.5-5-4.5c-2.1,0-4.1,0.9-5,2.7c-3.4-1-5,1.6-5,3.2c0,2.2,1.3,3.4,2.7,3.9"/>
			</g>
		</g>
		<g class="st3">
			<g class="st5">
				<text transform="matrix(1 0 0 1 174.1914 182.8341)" class="st19 st9 st20">14.26</text>
				<g>
					<text transform="matrix(1 0 0 1 216.8301 182.8331)" class="st19 st21 st22">PM</text>
				</g>
			</g>
		</g>
		<g class="st3">
			<g class="st5">
				<g>
					
						<image style="overflow:visible;" width="243" height="90" xlink:href="E6CAF182.png"  transform="matrix(1 0 0 1 -54.8206 55.6985)">
					</image>
				</g>
				<g>
					
						<image style="overflow:visible;opacity:0.35;" width="184" height="30" xlink:href="E6CAF180.png"  transform="matrix(1 0 0 1 -21.8206 88.6985)">
					</image>
					<g>
						<path class="st12" d="M145.7,110.5H-9.8c-4.2,0-7.6-3.8-7.6-8.6l0,0c0-4.7,3.4-8.6,7.6-8.6h155.5c4.2,0,7.6,3.8,7.6,8.6l0,0
							C153.3,106.7,149.9,110.5,145.7,110.5z"/>
					</g>
				</g>
			</g>
			<g class="st5">
				<path class="st23" d="M326.7,96L326.7,96c-0.8,0-1.5-0.7-1.5-1.5V92c0-0.8,0.7-1.5,1.5-1.5l0,0c0.8,0,1.5,0.7,1.5,1.5v2.5
					C328.2,95.4,327.5,96,326.7,96z"/>
				<path class="st23" d="M329.6,94.7c0,1.6-1.3,2.9-2.9,2.9l0,0c-1.6,0-2.9-1.3-2.9-2.9"/>
				<line class="st23" x1="326.7" y1="97.9" x2="326.7" y2="99.9"/>
				<line class="st23" x1="327.7" y1="99.9" x2="325.7" y2="99.9"/>
			</g>
		</g>
		<g class="st3">
			<g class="st5">
				<g>
					<g>
						<g>
							<image style="overflow:visible;" width="147" height="192" xlink:href="E6CAF19E.png"  transform="matrix(1 0 0 1 130 176)">
							</image>
						</g>
						<g>
							
								<image style="overflow:visible;opacity:0.4;" width="86" height="130" xlink:href="E6CAF183.png"  transform="matrix(1 0 0 1 163 210)">
							</image>
							<g>
								<path class="st12" d="M235.2,331.5H173c-3.1,0-5.6-2.5-5.6-5.6V219.7c0-3.1,2.5-5.6,5.6-5.6h62.2c3.1,0,5.6,2.5,5.6,5.6
									v106.2C240.9,329,238.3,331.5,235.2,331.5z"/>
							</g>
						</g>
					</g>
				</g>
			</g>
			<g class="st5">
				<text transform="matrix(1 0 0 1 200.1029 223.5844)" class="st8 st24 st25">JANUARY 06, 2021</text>
			</g>
			<g class="st5">
				<g>
					<g>
						<text transform="matrix(1 0 0 1 174.1916 240.8004)" class="st8 st16 st26">Thursday</text>
					</g>
				</g>
			</g>
			<g class="st5">
				<g>
					<text transform="matrix(1 0 0 1 185.8021 264.4561)" class="st8 st9 st27">Grosery shopping</text>
				</g>
				<g>
					<text transform="matrix(1 0 0 1 185.8021 272.1361)" class="st8 st9 st27">Iron livingroom</text>
				</g>
				<g>
					<text transform="matrix(1 0 0 1 175.4418 255.2213)" class="st11 st21 st28">HOUSEKEEPING</text>
				</g>
				<line class="st29" x1="181.2" y1="261.4" x2="181.2" y2="272.1"/>
			</g>
			<g class="st5">
				<g>
					<text transform="matrix(1 0 0 1 185.8021 294.8528)" class="st8 st9 st27">Team meating</text>
				</g>
				<g>
					<text transform="matrix(1 0 0 1 185.8021 302.5328)" class="st8 st9 st27">Landing design</text>
				</g>
				<g>
					<text transform="matrix(1 0 0 1 185.8021 310.2126)" class="st8 st9 st27">Icon package</text>
				</g>
				<g>
					<text transform="matrix(1 0 0 1 185.8021 317.8925)" class="st8 st9 st27">Mood board</text>
				</g>
				<g>
					<text transform="matrix(1 0 0 1 175.4418 285.618)" class="st11 st21 st28">WORK</text>
				</g>
				<line class="st29" x1="181.2" y1="291.8" x2="181.2" y2="317.9"/>
			</g>
		</g>
		<g class="st3">
			<g class="st5">
				<g>
					<g>
						<g>
							<image style="overflow:visible;" width="148" height="145" xlink:href="E6CAF187.png"  transform="matrix(1 0 0 1 220 309)">
							</image>
						</g>
						<g>
							
								<image style="overflow:visible;opacity:0.4;" width="87" height="84" xlink:href="E6CAF185.png"  transform="matrix(1 0 0 1 253 343)">
							</image>
							<g>
								<path class="st12" d="M325.6,418.3h-62.2c-3.1,0-5.6-2.5-5.6-5.6v-59.8c0-3.1,2.5-5.6,5.6-5.6h62.2c3.1,0,5.6,2.5,5.6,5.6
									v59.8C331.2,415.8,328.7,418.3,325.6,418.3z"/>
							</g>
						</g>
					</g>
				</g>
				<g>
					<text transform="matrix(1 0 0 1 310.7498 356.1941)" class="st8 st24 st25">STOCKS</text>
				</g>
			</g>
			<g class="st5">
				<g>
					<g>
						<text transform="matrix(1 0 0 1 264.7693 371.6022)" class="st8 st16 st26">+29.3</text>
					</g>
				</g>
			</g>
			<g class="st5">
				<g>
					<line class="st30" x1="266.4" y1="390" x2="266.4" y2="404.9"/>
					<line class="st30" x1="272.2" y1="392.1" x2="272.2" y2="407.8"/>
					<line class="st30" x1="278" y1="392.1" x2="278" y2="399.6"/>
					<line class="st30" x1="283.7" y1="392.1" x2="283.7" y2="402.1"/>
					<line class="st30" x1="289.5" y1="387" x2="289.5" y2="401.1"/>
					<line class="st30" x1="295.4" y1="388.3" x2="295.4" y2="398.1"/>
				</g>
				<g>
					<g>
						<path class="st11" d="M267,394.8v6.1c0,0.3-0.3,0.6-0.6,0.6l0,0c-0.3,0-0.6-0.3-0.6-0.6v-6.1c0-0.3,0.3-0.6,0.6-0.6l0,0
							C266.8,394.2,267,394.4,267,394.8z"/>
					</g>
					<g>
						<path class="st11" d="M272.8,395.7v4.8c0,0.3-0.3,0.6-0.6,0.6l0,0c-0.3,0-0.6-0.3-0.6-0.6v-4.8c0-0.3,0.3-0.6,0.6-0.6l0,0
							C272.5,395.1,272.8,395.3,272.8,395.7z"/>
					</g>
					<g>
						<path class="st11" d="M290.2,390v7.2c0,0.3-0.3,0.6-0.6,0.6l0,0c-0.3,0-0.6-0.3-0.6-0.6V390c0-0.3,0.3-0.6,0.6-0.6l0,0
							C289.9,389.4,290.2,389.6,290.2,390z"/>
					</g>
					<g>
						<path class="st31" d="M278.6,396v1.5c0,0.3-0.3,0.6-0.6,0.6l0,0c-0.3,0-0.6-0.3-0.6-0.6V396c0-0.3,0.3-0.6,0.6-0.6l0,0
							C278.3,395.4,278.6,395.7,278.6,396z"/>
					</g>
					<g>
						<g>
							<path class="st31" d="M284.4,393.7v3.5c0,0.3-0.3,0.6-0.6,0.6l0,0c-0.3,0-0.6-0.3-0.6-0.6v-3.5c0-0.3,0.3-0.6,0.6-0.6l0,0
								C284.1,393.1,284.4,393.3,284.4,393.7z"/>
						</g>
					</g>
					<g>
						<g>
							<path class="st31" d="M296,392.3v3.5c0,0.3-0.3,0.6-0.6,0.6l0,0c-0.3,0-0.6-0.3-0.6-0.6v-3.5c0-0.3,0.3-0.6,0.6-0.6l0,0
								C295.7,391.7,296,391.9,296,392.3z"/>
						</g>
					</g>
				</g>
				<line class="st30" x1="324.4" y1="396" x2="324.4" y2="381"/>
				<line class="st30" x1="318.6" y1="393.8" x2="318.6" y2="378.2"/>
				<line class="st30" x1="312.8" y1="393.8" x2="312.8" y2="386.4"/>
				<line class="st30" x1="307.1" y1="393.8" x2="307.1" y2="383.9"/>
				<line class="st30" x1="301.3" y1="399" x2="301.3" y2="384.9"/>
				<g>
					<path class="st11" d="M323.8,391.3v-6.1c0-0.3,0.3-0.6,0.6-0.6l0,0c0.3,0,0.6,0.3,0.6,0.6v6.1c0,0.3-0.3,0.6-0.6,0.6l0,0
						C324.1,391.9,323.8,391.6,323.8,391.3z"/>
				</g>
				<g>
					<path class="st11" d="M318.1,390.4v-4.8c0-0.3,0.3-0.6,0.6-0.6l0,0c0.3,0,0.6,0.3,0.6,0.6v4.8c0,0.3-0.3,0.6-0.6,0.6l0,0
						C318.3,391,318.1,390.7,318.1,390.4z"/>
				</g>
				<g>
					<path class="st11" d="M300.7,396.1v-7.2c0-0.3,0.3-0.6,0.6-0.6l0,0c0.3,0,0.6,0.3,0.6,0.6v7.2c0,0.3-0.3,0.6-0.6,0.6l0,0
						C300.9,396.7,300.7,396.4,300.7,396.1z"/>
				</g>
				<g>
					<path class="st31" d="M312.3,390.1v-1.5c0-0.3,0.3-0.6,0.6-0.6l0,0c0.3,0,0.6,0.3,0.6,0.6v1.5c0,0.3-0.3,0.6-0.6,0.6l0,0
						C312.5,390.7,312.3,390.4,312.3,390.1z"/>
				</g>
				<g>
					<g>
						<path class="st31" d="M306.5,392.4v-3.5c0-0.3,0.3-0.6,0.6-0.6l0,0c0.3,0,0.6,0.3,0.6,0.6v3.5c0,0.3-0.3,0.6-0.6,0.6l0,0
							C306.7,393,306.5,392.7,306.5,392.4z"/>
					</g>
				</g>
			</g>
			<g class="st5">
				<text transform="matrix(1 0 0 1 264.7691 362.4941)" class="st11 st21 st28">STKH</text>
			</g>
			<g class="st5">
				<g>
					<text transform="matrix(1 0 0 1 268.4399 377.1979)" class="st8 st9 st28">00.00 %</text>
				</g>
				<polygon class="st8" points="264.4,376.6 266.7,376.6 265.6,374.9 				"/>
			</g>
		</g>
		<g class="st3">
			
				<image style="display:inline;overflow:visible;" width="148" height="145" xlink:href="E6CAF18C.png"  transform="matrix(1 0 0 1 129 309)">
			</image>
		</g>
		<g class="st3">
			
				<image style="display:inline;overflow:visible;opacity:0.4;" width="86" height="84" xlink:href="E6CAF18D.png"  transform="matrix(1 0 0 1 162 342)">
			</image>
			<g class="st5">
				<g>
					<defs>
						<path id="SVGID_3_" d="M234.9,418.3h-62.2c-3.1,0-5.6-2.5-5.6-5.6v-59.8c0-3.1,2.5-5.6,5.6-5.6h62.2c3.1,0,5.6,2.5,5.6,5.6
							v59.8C240.5,415.8,238,418.3,234.9,418.3z"/>
					</defs>
					<clipPath id="SVGID_4_">
						<use xlink:href="#SVGID_3_"  style="overflow:visible;"/>
					</clipPath>
				</g>
				<g>
					<defs>
						<path id="SVGID_5_" d="M234.9,418.3h-62.2c-3.1,0-5.6-2.5-5.6-5.6v-59.8c0-3.1,2.5-5.6,5.6-5.6h62.2c3.1,0,5.6,2.5,5.6,5.6
							v59.8C240.5,415.8,238,418.3,234.9,418.3z"/>
					</defs>
					<use xlink:href="#SVGID_5_"  style="overflow:visible;fill:url(#New_Pattern_Swatch_4);"/>
					<clipPath id="SVGID_6_">
						<use xlink:href="#SVGID_5_"  style="overflow:visible;"/>
					</clipPath>
					<g class="st32">
						<g>
							<linearGradient id="SVGID_7_" gradientUnits="userSpaceOnUse" x1="190.3996" y1="278.9984" x2="190.3996" y2="422.8495">
								<stop  offset="0" style="stop-color:#FFFFFF;stop-opacity:0"/>
								<stop  offset="0.3995" style="stop-color:#97A0B0;stop-opacity:0.4521"/>
								<stop  offset="0.8836" style="stop-color:#14294D"/>
							</linearGradient>
							<rect x="56.7" y="314.8" class="st33" width="267.5" height="134.3"/>
						</g>
					</g>
				</g>
				<g>
					<defs>
						<path id="SVGID_8_" d="M234.9,418.3h-62.2c-3.1,0-5.6-2.5-5.6-5.6v-59.8c0-3.1,2.5-5.6,5.6-5.6h62.2c3.1,0,5.6,2.5,5.6,5.6
							v59.8C240.5,415.8,238,418.3,234.9,418.3z"/>
					</defs>
					<clipPath id="SVGID_9_">
						<use xlink:href="#SVGID_8_"  style="overflow:visible;"/>
					</clipPath>
				</g>
			</g>
		</g>
		<g class="st3">
			<g class="st5">
				<g>
					<text transform="matrix(1 0 0 1 186.1252 379.1581)"><tspan x="0" y="0" class="st19 st16 st26">Your daily</tspan><tspan x="-4.1" y="9.6" class="st19 st16 st26">inspirational</tspan><tspan x="6.7" y="19.2" class="st19 st16 st26">quote</tspan></text>
				</g>
			</g>
		</g>
	</g>
</g>
<g id="Button" class="st3">
	<g class="st5">
		<g>
			<g>
				<g>
					<g class="st34">
						<image style="overflow:visible;" width="271" height="289" xlink:href="E6CAF1A5.png"  transform="matrix(1 0 0 1 53 24)">
						</image>
					</g>
					<g>
						
							<image style="overflow:visible;opacity:0.4;" width="300" height="308" xlink:href="E6CAF1A7.png"  transform="matrix(1 0 0 1 65 36)">
						</image>
						<g>
							<linearGradient id="SVGID_10_" gradientUnits="userSpaceOnUse" x1="137.8422" y1="67.5472" x2="260.3097" y2="279.6671">
								<stop  offset="0" style="stop-color:#6F4C9F"/>
								<stop  offset="0.8721" style="stop-color:#6F4C9F;stop-opacity:0.3895"/>
								<stop  offset="1" style="stop-color:#6F4C9F;stop-opacity:0.3"/>
							</linearGradient>
							<path class="st35" d="M254.8,276.2H143.3c-23.8,0-43.2-19.3-43.2-43.2V114.2c0-23.8,19.3-43.2,43.2-43.2h111.5
								c23.8,0,43.2,19.3,43.2,43.2V233C298,256.8,278.7,276.2,254.8,276.2z"/>
						</g>
					</g>
				</g>
			</g>
		</g>
	</g>
</g>
<g id="Layer_13" class="st3">
	<g class="st5">
		
			<image style="overflow:visible;opacity:0.4;" width="301" height="308" xlink:href="E6CAF1A4.png"  transform="matrix(1 0 0 1 65 33)">
		</image>
		<g>
			<linearGradient id="SVGID_11_" gradientUnits="userSpaceOnUse" x1="137.9289" y1="64.5938" x2="260.3964" y2="276.7137">
				<stop  offset="0" style="stop-color:#6F4C9F"/>
				<stop  offset="0.8721" style="stop-color:#6F4C9F;stop-opacity:0.3895"/>
				<stop  offset="1" style="stop-color:#6F4C9F;stop-opacity:0.3"/>
			</linearGradient>
			<path class="st36" d="M254.9,273.2H143.4c-23.8,0-43.2-19.3-43.2-43.2V111.3c0-23.8,19.3-43.2,43.2-43.2h111.5
				c23.8,0,43.2,19.3,43.2,43.2V230C298.1,253.9,278.7,273.2,254.9,273.2z"/>
		</g>
	</g>
	<linearGradient id="SVGID_12_" gradientUnits="userSpaceOnUse" x1="141.8872" y1="65.1405" x2="263.7233" y2="276.1669">
		<stop  offset="0" style="stop-color:#6F4C9F"/>
		<stop  offset="0.8721" style="stop-color:#6F4C9F;stop-opacity:0.3895"/>
		<stop  offset="1" style="stop-color:#6F4C9F;stop-opacity:0.3"/>
	</linearGradient>
	<path class="st37" d="M255.6,273.2H150c-27.4,0-49.7-22.4-49.7-49.7V117.9c0-27.4,22.4-49.7,49.7-49.7h105.6
		c27.4,0,49.7,22.4,49.7,49.7v105.6C305.4,250.8,283,273.2,255.6,273.2z"/>
</g>
<g id="Layer_15" class="st3">
	<g class="st38">
		
			<image style="overflow:visible;" width="257" height="257" xlink:href="E6CAF1A3.png"  transform="matrix(1 0 0 1 126.8222 116.2598)">
		</image>
	</g>
</g>
<g id="Layer_16" class="st3">
	<g class="st39">
		
			<image style="overflow:visible;" width="256" height="257" xlink:href="E6CAF1AD.png"  transform="matrix(1 0 0 1 116.8222 127.2598)">
		</image>
	</g>
</g>
<g id="Layer_22" class="st3">
	<g class="st39">
		<image style="overflow:visible;" width="256" height="258" xlink:href="E6CAF1AF.png"  transform="matrix(1 0 0 1 117 126.5708)">
		</image>
	</g>
</g>
<g id="Layer_14" class="st3">
	<linearGradient id="SVGID_13_" gradientUnits="userSpaceOnUse" x1="198.3127" y1="342.759" x2="303.1725" y2="161.1365">
		<stop  offset="0" style="stop-color:#D4D1D1"/>
		<stop  offset="0.5152" style="stop-color:#ECEBEB"/>
		<stop  offset="1" style="stop-color:#FFFFFF"/>
	</linearGradient>
	<path class="st40" d="M302.5,337.9H199c-18.6,0-33.8-15.2-33.8-33.8V199.7c0-18.6,15.2-33.8,33.8-33.8h103.6
		c18.6,0,33.8,15.2,33.8,33.8v104.4C336.3,322.7,321.1,337.9,302.5,337.9z"/>
	<g id="Layer_17">
		<g class="st41">
			
				<image style="overflow:visible;opacity:0.25;" width="66" height="66" xlink:href="E6CAF1AC.png"  transform="matrix(1 0 0 1 240.5658 75.9273)">
			</image>
			<g>
				<path d="M299.3,108c0,14.7-11.9,26.6-26.6,26.6c-14.7,0-26.6-11.9-26.6-26.6c0-14.7,11.9-26.6,26.6-26.6
					C287.4,81.4,299.3,93.3,299.3,108z"/>
			</g>
		</g>
	</g>
	<g class="st42">
		<g class="st5">
			
				<image style="overflow:visible;opacity:0.25;" width="63" height="63" xlink:href="E6CAF1A6.png"  transform="matrix(1 0 0 1 243.5658 75.9273)">
			</image>
			<g>
				<path class="st43" d="M299.3,106.3c0,13.7-11.1,24.9-24.9,24.9c-13.7,0-24.9-11.1-24.9-24.9c0-13.7,11.1-24.9,24.9-24.9
					C288.1,81.4,299.3,92.6,299.3,106.3z"/>
			</g>
		</g>
		<text transform="matrix(1 0 0 1 262.288 117.4039)" class="st44 st45 st46">11</text>
	</g>
</g>
<g id="msg" class="st3">
	<g class="st5">
		<linearGradient id="SVGID_14_" gradientUnits="userSpaceOnUse" x1="225.3468" y1="296.1364" x2="270.2023" y2="218.4444">
			<stop  offset="0" style="stop-color:#6F4C9F"/>
			<stop  offset="1" style="stop-color:#6F4C9F;stop-opacity:0.9"/>
		</linearGradient>
		<path class="st47" d="M217.6,290.6h-0.4c-2.9,0-5.2-2.3-5.2-5.2V285l0-33c0-1.5,0.1-2.9,0.4-4.4c0.1-0.5,0.2-1.1,0.3-1.6
			c2.8-16.9,16.3-30.3,33.3-32.4c22.3-2.7,40.8,13.3,43.3,33.2c1.6,13.1-2.5,24.2-12,33.2c-6.5,6.2-14.3,9.6-23.2,10.3L217.6,290.6z
			 M278.5,253.4c-0.2-1.4-0.2-2.8-0.5-4.1c-0.7-3-2.4-4.3-5.5-4.3c-1.2,0-2.3,0.2-3.5,0.4c-4.3,0.8-8.6,1.9-13,2.6
			c-5.9,0.9-11.7-0.2-17.5-1.5c-2.6-0.5-5.1-1.1-7.7-1.4c-3.6-0.5-7,2.1-7.4,5.8c-0.2,1.9-0.2,3.8,0.1,5.7c0.5,3.8,2.5,5.3,6.3,4.9
			c2.9-0.4,5.8-1,8.7-1.7c5.5-1.3,11.1-2.4,16.7-1.5c4.6,0.8,9.2,1.9,13.8,2.9C275.8,262.5,278.3,260.3,278.5,253.4z"/>
		<linearGradient id="SVGID_15_" gradientUnits="userSpaceOnUse" x1="231.6894" y1="256.754" x2="235.5877" y2="250.0021">
			<stop  offset="0" style="stop-color:#6F4C9F"/>
			<stop  offset="1" style="stop-color:#6F4C9F;stop-opacity:0.9"/>
		</linearGradient>
		<path class="st48" d="M237.5,253.3c0,2.1-1.7,3.9-3.8,4c-2.1,0.1-3.9-1.6-4-3.7c-0.1-2.2,1.7-4,3.9-4.1
			C235.7,249.5,237.5,251.2,237.5,253.3z"/>
		<linearGradient id="SVGID_16_" gradientUnits="userSpaceOnUse" x1="265.9107" y1="256.762" x2="269.8126" y2="250.0037">
			<stop  offset="0" style="stop-color:#6F4C9F"/>
			<stop  offset="1" style="stop-color:#6F4C9F;stop-opacity:0.9"/>
		</linearGradient>
		<path class="st49" d="M271.8,253.4c0,2.1-1.8,3.8-3.9,3.8c-2.1,0-3.9-1.7-3.9-3.9c0-2.2,1.8-4,4-3.9
			C270.1,249.5,271.8,251.3,271.8,253.4z"/>
	</g>
</g>
<g id="Layer_6" class="st3">
	<g class="st5">
		<path class="st50" d="M218.4,290.8c0-25.9,0-51.8,0-77.6c14.9,0,29.8,0,44.8,0c0,7.8,0,15.2,0,22.9c6.7,0,13.3,0,19.9,0
			c0,18.3,0,36.4,0,54.7C261.5,290.8,239.9,290.8,218.4,290.8z"/>
		<path class="st50" d="M283,231.6c-5.4,0-10.3,0-15.3,0c0-5.9,0-11.7,0-17.5c0.1-0.1,0.2-0.1,0.4-0.2
			C272.9,219.7,277.8,225.5,283,231.6z"/>
	</g>
</g>
<g id="emoji" class="st3">
	<circle class="st51" cx="199.1" cy="173.6" r="34.5"/>
	<g class="st52">
		<path class="st43" d="M199.1,134.8c-21.4,0-38.8,17.4-38.8,38.8s17.4,38.8,38.8,38.8s38.8-17.4,38.8-38.8S220.5,134.8,199.1,134.8
			z M199.1,208.1c-19,0-34.5-15.5-34.5-34.5s15.5-34.5,34.5-34.5s34.5,15.5,34.5,34.5S218.1,208.1,199.1,208.1z"/>
		<linearGradient id="SVGID_17_" gradientUnits="userSpaceOnUse" x1="214.3965" y1="171.2623" x2="214.3965" y2="161.457">
			<stop  offset="0" style="stop-color:#6F4C9F"/>
			<stop  offset="0.8721" style="stop-color:#6F4C9F;stop-opacity:0.6512"/>
			<stop  offset="1" style="stop-color:#6F4C9F;stop-opacity:0.6"/>
		</linearGradient>
		<circle class="st53" cx="214.4" cy="166.4" r="4.9"/>
		<linearGradient id="SVGID_18_" gradientUnits="userSpaceOnUse" x1="183.7554" y1="171.2623" x2="183.7554" y2="161.457">
			<stop  offset="0" style="stop-color:#6F4C9F"/>
			<stop  offset="0.8721" style="stop-color:#6F4C9F;stop-opacity:0.6512"/>
			<stop  offset="1" style="stop-color:#6F4C9F;stop-opacity:0.6"/>
		</linearGradient>
		<circle class="st54" cx="183.8" cy="166.4" r="4.9"/>
		<linearGradient id="SVGID_19_" gradientUnits="userSpaceOnUse" x1="199.076" y1="190.8782" x2="199.076" y2="180.8294">
			<stop  offset="0" style="stop-color:#6F4C9F"/>
			<stop  offset="0.8721" style="stop-color:#6F4C9F;stop-opacity:0.6512"/>
			<stop  offset="1" style="stop-color:#6F4C9F;stop-opacity:0.6"/>
		</linearGradient>
		<path class="st55" d="M213,181.4c-7.8,6.9-20,6.9-27.8,0c-0.9-0.8-2.3-0.7-3,0.2c-0.8,0.9-0.7,2.3,0.2,3
			c4.7,4.2,10.7,6.3,16.8,6.3c6,0,12.1-2.1,16.8-6.3c0.9-0.8,1-2.2,0.2-3C215.2,180.7,213.8,180.6,213,181.4z"/>
	</g>
</g>
<g id="image" class="st56">
	<g class="st5">
		<path class="st43" d="M149.2,194.1c0.1,0,0.2-0.1,0.4-0.1c0,3.8,0.1,7.5,0.1,11.3c0,1.7,0.3,2.4,2.2,2.4c29.9-0.1,59.8-0.1,89.6,0
			c1.9,0,2.3-0.6,2.2-2.4c-0.1-8.7,0-17.3,0-26c0.1,0,0.3,0,0.4,0.1c0,9.1,0,18.2,0,27.3c0,1-0.1,1.4-1.3,1.4c-30.8,0-61.6,0-92.4,0
			c-1.1,0-1.3-0.3-1.3-1.4C149.2,202.5,149.2,198.3,149.2,194.1z"/>
		<path class="st43" d="M243.7,179.3c0,8.7-0.1,17.3,0,26c0,1.7-0.4,2.4-2.2,2.4c-29.9-0.1-59.8-0.1-89.6,0c-1.9,0-2.3-0.7-2.2-2.4
			c0.1-3.7,0-7.5-0.1-11.3c4.5-5.7,8.9-11.5,13.4-17.2c3.1-4,6.2-7.9,9.5-12c4.6,5.7,9.2,11.4,13.9,17.3c1-1.5,2-3,2.9-4.5
			c7.1-11,14.2-22,21.2-33c0.9-1.4,1.3-1.7,2.6-0.2c9.7,11,19.4,21.9,29.2,32.9C242.7,177.9,243.2,178.6,243.7,179.3z"/>
	</g>
	<circle class="st57" cx="184.7" cy="138.8" r="8.4"/>
</g>
<g id="microphone" class="st3">
	<path class="st51" d="M199.1,134.8c-8.7,0-15.8,7.1-15.8,15.8v23.7c0,8.7,7.1,15.8,15.8,15.8c8.7,0,15.8-7.1,15.8-15.8v-23.7
		C214.9,141.9,207.8,134.8,199.1,134.8z"/>
	<path class="st51" d="M222.8,174.3c-2.2,0-3.9,1.8-3.9,3.9c0,10.9-8.8,19.7-19.7,19.7c-10.9,0-19.7-8.8-19.7-19.7
		c0-2.2-1.8-3.9-3.9-3.9c-2.2,0-3.9,1.8-3.9,3.9c0,13.7,10.1,25.3,23.7,27.3v4.3c0,2.2,1.8,3.9,3.9,3.9c2.2,0,3.9-1.8,3.9-3.9v-4.3
		c13.6-2,23.7-13.6,23.7-27.3C226.7,176,224.9,174.3,222.8,174.3z"/>
</g>
<g id="Layer_9" class="st3">
	<g class="st52">
		<path class="st43" d="M199.1,134.8c-21.8,0-39.5,17.7-39.5,39.5s17.7,39.5,39.5,39.5s39.5-17.7,39.5-39.5S220.9,134.8,199.1,134.8
			z M215.4,177.3l-21.5,14.4c-1.7,1.1-3.9,0.6-5-1c-0.4-0.6-0.6-1.3-0.6-2v-28.7c0-1.3,0.7-2.5,1.9-3.2c1.1-0.6,2.5-0.5,3.6,0.2
			l21.5,14.4c1.6,1.1,2.1,3.3,1,5C216,176.7,215.7,177,215.4,177.3L215.4,177.3z"/>
	</g>
</g>
<g id="Layer_10" class="st56">
	<g class="st52">
		<g>
			<path class="st43" d="M199.1,171.7L199.1,171.7c10.8,0,19.6-8.8,19.6-19.6s-8.8-19.6-19.6-19.6l0,0c-10.8,0-19.6,8.8-19.6,19.6
				S188.3,171.7,199.1,171.7z"/>
			<path class="st43" d="M207.6,178.1c-2.7,0.9-5.6,1.4-8.5,1.4c-2.9,0-5.8-0.5-8.5-1.4c-8.6-2.8-18.2-0.5-23.9,6.5
				c-4.2,5.2-6.7,11.8-6.7,19v11.1h78.2v-11.1c0-7.1-2.5-13.8-6.7-19C225.7,177.6,216.2,175.3,207.6,178.1z"/>
		</g>
	</g>
</g>
<g id="Layer_11" class="st56">
	<path class="st57" d="M246.4,138.5c0-1.8-1.8-3-3.5-2.5l-21.2,6.2c-2.1,0.7-2.6,3.4-0.8,4.9l6.4,4.7l-22.6,30.7L187.7,170
		c-2.5-1.8-5.9-1.3-7.6,1.2l-27.7,38.1c-1.8,2.5-1.3,5.9,1.2,7.6c2.5,1.8,5.9,1.3,7.6-1.2l24.4-33.5l17.1,12.5
		c2.5,1.8,5.9,1.3,7.6-1.2l25.9-35.5l6.4,4.7c1.8,1.3,4.3,0,4.3-2.2L246.4,138.5z"/>
</g>
<g id="Layer_12" class="st56">
	<g class="st5">
		<g>
			<g>
				<path class="st43" d="M160.6,172.4l41.3,41.3c1.1,1.1,3,1.1,4.1,0c1.1-1.1,1.1-3,0-4.1l-41.3-41.3c-6.9-6.9-6.9-17.9,0-24.8
					s17.9-6.9,24.8,0l45.5,45.5c4.5,4.5,4.5,12,0,16.5c-4.5,4.5-12,4.5-16.5,0L175.1,162c-2.3-2.3-2.3-5.9,0-8.3
					c2.3-2.3,5.9-2.3,8.3,0l37.2,37.2c1.1,1.1,3,1.1,4.1,0s1.1-3,0-4.1l-37.3-37.1c-4.5-4.5-12-4.5-16.5,0s-4.5,12,0,16.5l45.5,45.5
					c0.6,0.6,1.2,0.8,1.9,0.8c6.7,3.7,15.2,2.7,20.8-2.9c6.9-6.9,6.9-17.9,0-24.8l-45.5-45.4c-9.1-9.1-24-9.1-33,0
					S151.5,163.3,160.6,172.4z"/>
			</g>
		</g>
	</g>
</g>
<g id="Layer_18" class="st3">
	<polyline class="st58" points="-15.9,-54.1 -15.9,-106.6 36.6,-106.6 36.6,-54.1 	"/>
	<polyline class="st59" points="37.2,-54.1 37.2,-106.6 89.7,-106.6 89.7,-54.1 	"/>
	<polyline class="st60" points="89.7,-54.1 89.7,-106.6 142.2,-106.6 142.2,-54.1 	"/>
	<polyline class="st61" points="142.5,-54.1 142.5,-106.6 195,-106.6 195,-54.1 	"/>
	<polyline class="st62" points="193.7,-54.1 193.7,-106.6 246.2,-106.6 246.2,-54.1 	"/>
	<polyline class="st63" points="245.2,-54.1 245.2,-106.6 297.7,-106.6 297.7,-54.1 	"/>
	<polyline class="st64" points="351.1,-54.1 351.1,-106.6 403.6,-106.6 403.6,-54.1 	"/>
	<polyline class="st65" points="456.1,-54.1 456.1,-106.6 508.5,-106.6 508.5,-54.1 	"/>
	<polyline class="st4" points="-59.4,-54.1 -59.4,-106.6 -7,-106.6 -7,-54.1 	"/>
	<polyline class="st66" points="351.1,-54.1 351.1,-106.6 403.6,-106.6 403.6,-54.1 	"/>
	<polyline class="st67" points="403.6,-54.1 403.6,-106.6 456.1,-106.6 456.1,-54.1 	"/>
	<polyline class="st68" points="298.3,-54.1 298.3,-106.6 350.8,-106.6 350.8,-54.1 	"/>
	<polyline class="st69" points="508.5,-55.7 508.5,-106.6 559.4,-106.6 	"/>
</g>
<g id="Layer_19" class="st3">
	<g class="st5">
		<path class="st50" d="M270.9,249.7c0-4.7,0-9.4,0-14c0-0.5,0.1-1,0.4-1.4c0.8-1,1.3-2.2,1.5-3.6c0.4-2-0.9-3.5-2.6-2.9
			c-1.1,0.4-1.5,0.1-2-1.1c-2-4.6-5.5-6.9-9.7-7.6c-6.7-1.2-13.4-1.7-19.8,1.6c-2.6,1.4-4.6,3.5-5.8,6.6c-0.3,0.7-0.5,0.9-1.2,0.7
			c-1-0.4-2-0.5-2.8,0.5c-0.8,1-0.5,2.2-0.2,3.3c0.1,0.5,0.4,1.1,0.6,1.5c1,2.1,1.1,3,1.1,4.7c0,8.6,0,43.1,0,51.7l0,0
			c0,0.6-0.5,1-1,1l-2,0c-0.6,0-1-0.5-1-1c0-9.6,0-44.6,0-52.2c0-0.6-0.1-1.1-0.4-1.7c-2.3-4.3-2.1-8.3,0.5-11
			c0.7-0.7,1.6-1.3,2.5-1.4c1-0.1,1.5-0.7,2.1-1.5c3.1-4.3,7.2-6.7,11.9-7.5c6.1-0.9,12.3-1.3,18.4,0.8c3.8,1.3,7,3.7,9.4,7.5
			c0.1,0.2,0.3,0.4,0.5,0.5c5.1,1.6,7,5.7,4.8,11c-1,2.3-1.1,4.4-1.1,6.8c0,7.6,0,41.2,0,48.8l0,0c0,0.6-0.5,1.1-1,1.1
			c-0.8,0-1.6,0-2,0c0,0,0,0,0,0c-0.6,0-1-0.4-1-1C270.9,281.3,270.9,253.1,270.9,249.7z"/>
		<path class="st50" d="M264.8,231.1c0,0.1,0,0.3-0.1,0.5c-0.3,1-0.5,2.1-1.9,2.2c-1.3,0.1-1.7-1-2-2c-0.1-0.3-0.1-0.6-0.1-0.9
			c0-1.7,0.9-3.1,2-3.1C263.9,227.9,264.8,229.3,264.8,231.1z"/>
		<path class="st50" d="M240.6,231c0,0.2,0,0.3,0,0.5c-0.2,1.1-0.5,2.3-1.9,2.4c-1.4,0.1-1.7-1.1-2-2.1c-0.1-0.2-0.1-0.5-0.1-0.7
			c0-1.6,0.9-3.1,2-3.1C239.7,227.9,240.6,229.3,240.6,231z"/>
		<g>
			<path class="st50" d="M263.9,238.3c-2.7-2.3-5.4-4.4-8.1-6.6c-3.2-2.4-7.1-2.4-10.3,0.1c-2.7,2.1-5.4,4.3-8,6.5
				c-4.6,3.9-3.6,10.8,2,13.1c3.6,1.5,7.2,0.5,10.6-1c0.4-0.2,0.7-0.3,1.1-0.1c2.2,1.2,4.6,1.7,6.3,1.8c4.5,0.1,7.5-1.9,8.8-5.2
				C267.6,243.7,266.7,240.7,263.9,238.3z M262.6,245.4c-0.6,1.7-2.2,2.7-4.1,2.7c-2.7,0-5.3-1-7.4-2.7c-0.2-0.1-0.2-0.3-0.3-0.4
				c0,0.1-0.1,0.1-0.1,0.2c-0.1,0.1-0.1,0.1-0.2,0.2c-2.5,2.1-5.3,2.9-8.5,2.6c-1.7-0.2-2.7-1.2-3.2-2.8c-0.5-1.6,0.1-2.8,1.4-3.8
				c2.2-1.7,4.3-3.5,6.5-5.3c3.5-2.9,4.6-2.9,8.1-0.1c2.1,1.7,4.2,3.5,6.4,5.2C262.6,242.3,263.2,243.6,262.6,245.4z"/>
			<path class="st50" d="M255.8,239.4c-1.1-0.8-2.5-1.1-3.8-1.2c-1.8-0.1-3.5-0.1-5.2,0.6c-0.5,0.2-1,0.4-1.3,0.8
				c-0.6,0.6-0.5,1.2,0.3,1.6c0.8,0.4,1.7,0.5,2.6,0.5c1.3-0.1,2.3,1,2.6,2c0.3-1.1,1.1-1.9,2.3-1.9c0.8,0,1.5,0,2.3-0.3
				c0.5-0.2,0.9-0.4,1-0.9C256.5,240,256.1,239.7,255.8,239.4z"/>
		</g>
	</g>
	<g class="st5">
		<path class="st50" d="M260.4,260.6H241c-3.2,0-5.8,2.6-5.8,5.8v8.8c0,8.6,7,15.6,15.6,15.6c8.6,0,15.6-7,15.6-15.6v-8.8
			C266.3,263.2,263.7,260.6,260.4,260.6z M262.4,275.2c0,6.4-5.2,11.7-11.7,11.7l0,0c-6.4,0-11.7-5.2-11.7-11.7v-8.8
			c0-1.1,0.9-1.9,1.9-1.9h19.5c1.1,0,1.9,0.9,1.9,1.9V275.2z"/>
		<path class="st50" d="M250.7,275.4l-5.8-5.8l-2.8,2.8l7.2,7.2c0.8,0.8,2,0.8,2.8,0c0,0,0,0,0,0l7.2-7.2l-2.8-2.8L250.7,275.4z"/>
	</g>
</g>
<g id="Layer_20" class="st3">
	<g class="st5">
		<path class="st50" d="M282.2,226.6c0-1.2-1.2-2-2.4-1.7l-14.2,4.1c-1.4,0.4-1.8,2.3-0.5,3.3l4.3,3.2l-15.1,20.6l-11.4-8.4
			c-1.7-1.2-4-0.9-5.1,0.8L219.3,274c-1.2,1.7-0.9,4,0.8,5.1c1.7,1.2,4,0.9,5.1-0.8l16.4-22.4l11.4,8.4c1.7,1.2,4,0.9,5.1-0.8
			l17.3-23.7l4.3,3.2c1.2,0.9,2.9,0,2.9-1.5L282.2,226.6z"/>
	</g>
</g>
<g id="Layer_21">
	<g>
		<path class="st43" d="M257.7,252.1h-15.4c-14.9,0-27,12.1-27,27v7.7c0,2.1,1.7,3.9,3.9,3.9h61.7c2.1,0,3.9-1.7,3.9-3.9v-7.7
			C284.7,264.2,272.6,252.1,257.7,252.1z"/>
		<circle class="st43" cx="250" cy="230.9" r="17.3"/>
	</g>
</g>
<g id="Layer_23" class="st3">
	<g class="st5">
		<g>
			<g>
				<g>
					<g>
						<g>
							<g>
								<g>
									<g>
										<g>
											<g>
												<g>
													<g>
														<g>
															<g>
																<path d="M277.9,242.2l-1.3-3.2c4.5-10.4,4.2-10.7,3.3-11.6l-5.7-5.7l-0.6-0.5H273c-0.4,0-1.4,0-10.1,4l-3.2-1.3
																	c-4.2-10.5-4.6-10.5-5.8-10.5h-8.1c-1.2,0-1.7,0-5.5,10.5l-3.2,1.3c-5.9-2.5-9.4-3.9-10.3-3.9h-0.8l-6.2,6.2
																	c-0.9,1-1.3,1.3,3.5,11.5l-1.3,3.2c-10.5,4.1-10.5,4.5-10.5,5.9v8.1c0,1.3,0,1.7,10.6,5.6l1.3,3.2
																	c-4.5,10.4-4.2,10.7-3.3,11.6l5.7,5.7l0.6,0.5h0.7c0.3,0,1.4,0,10.1-4l3.2,1.3c4.2,10.5,4.6,10.5,5.8,10.5h8.1
																	c1.2,0,1.7,0,5.5-10.5l3.2-1.3c5.9,2.5,9.3,3.9,10.3,3.9h0.8l6.2-6.2c0.9-0.9,1.2-1.2-3.5-11.4l1.3-3.2
																	c10.5-4.2,10.5-4.6,10.5-5.9v-8.1C288.5,246.5,288.5,246,277.9,242.2z M250,265.4c-7.5,0-13.5-6-13.5-13.5
																	c0-7.5,6-13.5,13.5-13.5s13.5,6,13.5,13.5c0,0,0,0,0,0C263.4,259.4,257.4,265.4,250,265.4z"/>
															</g>
														</g>
													</g>
												</g>
											</g>
										</g>
									</g>
								</g>
							</g>
						</g>
					</g>
				</g>
			</g>
		</g>
	</g>
</g>
<g id="Layer_24" class="st3">
	<path class="st5" d="M301.9,270.9l-1.6-1.3c-0.2-0.2-0.5-0.2-0.9,0l-1.8,1.3c-0.2,0.1-0.2,0.3-0.2,0.5v4.9h-7.1v-4.9
		c0-0.2-0.1-0.4-0.2-0.5l-1.6-1.3c-0.2-0.2-0.5-0.2-0.9,0l-1.8,1.3c-0.2,0.1-0.2,0.3-0.2,0.5v4.9h-7.1v-21.1h4.1c4.2,0,6.4-5,3.3-8
		l-32.5-32.5c-1.9-1.9-4.8-1.9-6.7,0l-32.4,32.5c-3,3-0.9,8,3.3,8h4.1v21h-7v-4.9c0-0.2-0.1-0.4-0.2-0.5l-1.6-1.3
		c-0.2-0.2-0.5-0.2-0.9,0l-1.8,1.4c-0.2,0.1-0.2,0.3-0.2,0.5v4.9h-7.2v-4.9c0-0.2-0.1-0.4-0.2-0.5l-1.8-1.3c-0.2-0.2-0.5-0.2-0.9,0
		l-1.6,1.3c-0.2,0.1-0.2,0.3-0.2,0.5v18.9c0,0.3,0.3,0.7,0.7,0.7h102.9c0.3,0,0.7-0.3,0.7-0.7v-18.9
		C302.1,271.2,302,271,301.9,270.9z M202.6,286.3v-5.2h7.1v5.2H202.6z M214.5,286.3v-5.2h7v5.2H214.5z M248.1,275h-8.6
		c-1.2,0-2.1-1-2.1-2.1v-5.5h10.6V275z M248.1,263.8h-10.6v-5.5c0-1.2,1-2.1,2.1-2.1h8.6V263.8z M262.4,272.9c0,1.2-1,2.1-2.1,2.1
		h-8.6v-7.6h10.6V272.9z M262.4,263.8h-10.6v-7.6h8.6c1.2,0,2.1,1,2.1,2.1V263.8z M278.4,286.3v-5.2h7.1v5.2H278.4z M290.3,286.3
		v-5.2h7.1v5.2H290.3z"/>
</g>
<g id="Layer_25" class="st3">
	<g class="st5">
		<path d="M275,244h-14.1c0-2.6-2.1-4.7-4.7-4.7h-2.4c0-1.2,0.4-7.1,7.1-7.1h18.8c4.1,0,11.8-2.5,11.8-11.8v-4.7h-4.7v4.7
			c0,6.6-5.9,7-7.1,7.1h-18.8c-9.3,0-11.8,7.7-11.8,11.8h-2.4c-2.6,0-4.7,2.1-4.7,4.7h-14.1c-13,0-23.5,10.5-23.5,23.5
			c0,13,10.5,23.5,23.5,23.5c7.7,0,14.4-3.7,18.7-9.4h9.6c4.3,5.7,11,9.4,18.7,9.4c13,0,23.5-10.5,23.5-23.5
			C298.6,254.6,288,244,275,244z M235,274.6c0,3.9-3.2,7.1-7.1,7.1c-3.9,0-7.1-3.2-7.1-7.1c-3.9,0-7.1-3.2-7.1-7.1
			c0-3.9,3.2-7.1,7.1-7.1c0-3.9,3.2-7.1,7.1-7.1c3.9,0,7.1,3.2,7.1,7.1c3.9,0,7.1,3.2,7.1,7.1C242.1,271.5,238.9,274.6,235,274.6z
			 M253.8,272.3h-4.7c-1.3,0-2.4-1.1-2.4-2.4s1.1-2.4,2.4-2.4h4.7c1.3,0,2.4,1.1,2.4,2.4S255.1,272.3,253.8,272.3z M275,253.4
			c2.6,0,4.7,2.1,4.7,4.7c0,2.6-2.1,4.7-4.7,4.7s-4.7-2.1-4.7-4.7C270.3,255.5,272.4,253.4,275,253.4z M265.6,272.3
			c-2.6,0-4.7-2.1-4.7-4.7s2.1-4.7,4.7-4.7c2.6,0,4.7,2.1,4.7,4.7S268.2,272.3,265.6,272.3z M275,281.7c-2.6,0-4.7-2.1-4.7-4.7
			c0-2.6,2.1-4.7,4.7-4.7s4.7,2.1,4.7,4.7C279.7,279.6,277.6,281.7,275,281.7z M284.4,272.3c-2.6,0-4.7-2.1-4.7-4.7s2.1-4.7,4.7-4.7
			s4.7,2.1,4.7,4.7S287.1,272.3,284.4,272.3z M237.4,267.6c0,1.3-1.1,2.4-2.4,2.4h-4.7v4.7c0,1.3-1.1,2.4-2.4,2.4s-2.4-1.1-2.4-2.4
			v-4.7h-4.7c-1.3,0-2.4-1.1-2.4-2.4s1.1-2.4,2.4-2.4h4.7v-4.7c0-1.3,1.1-2.4,2.4-2.4s2.4,1.1,2.4,2.4v4.7h4.7
			C236.3,265.2,237.4,266.3,237.4,267.6z"/>
	</g>
</g>
</svg>
