<svg id="Layer_5" data-name="Layer 5" xmlns="http://www.w3.org/2000/svg" viewBox="0 0 424.77 424.77"><defs><style>.cls-1{fill:#4c9f6f;}</style></defs><title>NDLOGGEDIN</title><path class="cls-1" d="M501,273.35A212.39,212.39,0,1,0,713.38,485.73,212.19,212.19,0,0,0,501,273.35ZM603.77,441.69,478,567a19.33,19.33,0,0,1-13.7,5.87A18.51,18.51,0,0,1,450.6,567l-62.15-61.66a19.72,19.72,0,0,1,27.89-27.89l48,47.95L575.87,413.8a19.51,19.51,0,0,1,27.9,0C611.11,421.63,611.11,434.35,603.77,441.69Z" transform="translate(-288.62 -273.35)"/></svg>