<svg id="Layer_2" data-name="Layer 2" xmlns="http://www.w3.org/2000/svg" viewBox="0 0 588.3 588.3"><defs><style>.cls-1{fill:#fff;}</style></defs><title>OPDISCORD</title><ellipse class="cls-1" cx="348.5" cy="310.81" rx="29.3" ry="33.44"/><ellipse class="cls-1" cx="239.8" cy="310.81" rx="29.3" ry="33.44"/><path class="cls-1" d="M501,166.7c-162.45,0-294.15,131.7-294.15,294.15S338.55,755,501,755,795.15,623.3,795.15,460.85,663.45,166.7,501,166.7Zm75.49,427.78-13.67-18.27A166.88,166.88,0,0,0,635,527.61c-27.12,20.57-67.91,41.82-133.75,41.82s-106.74-21.37-133.75-41.82a166.88,166.88,0,0,0,72.16,48.6L426,594.48s-65.5-.34-108.58-50.1c7.35-121.79,50.09-183.84,50.09-183.84s36.08-29,83.54-33.44l4,8.16c-37.34,8.39-59.64,24.36-79.28,41.94C409.54,360,443,343.76,501.11,343.76S592.69,360,626.47,377.2c-19.64-17.58-38.37-31.94-79.28-41.94l4-8.16c45.27,3.45,83.54,33.44,83.54,33.44s42.74,62,50.32,183.84C642,594.14,576.49,594.48,576.49,594.48Z" transform="translate(-206.85 -166.7)"/></svg>