<?xml version="1.0" encoding="utf-8"?>
<!-- Generator: Adobe Illustrator 23.0.2, SVG Export Plug-In . SVG Version: 6.00 Build 0)  -->
<svg version="1.1" xmlns="http://www.w3.org/2000/svg" xmlns:xlink="http://www.w3.org/1999/xlink" x="0px" y="0px"
	 viewBox="0 0 1000 1000" style="enable-background:new 0 0 1000 1000;" xml:space="preserve">
<style type="text/css">
	.st0{display:none;}
	.st1{display:inline;fill-rule:evenodd;clip-rule:evenodd;fill:#46CDFD;}
	.st2{display:inline;}
	.st3{fill:#46CDFD;}
	.st4{fill:#FFFFFF;}
	.st5{display:inline;fill-rule:evenodd;clip-rule:evenodd;fill:#FFFFFF;}
	.st6{display:inline;fill:#FFFFFF;}
	.st7{fill:#4C9F6F;}
</style>
<g id="Layer_1" class="st0">
	<g xmlns:serif="http://www.serif.com/">
		<path class="st1" d="M500,167.5c183.5,0,332.5,149,332.5,332.5S683.5,832.5,500,832.5S167.5,683.5,167.5,500
			S316.5,167.5,500,167.5z M694.1,675.3v-6.5L663.7,639c-2.7-2-4-5.4-3.5-8.7V411c-0.6-3.3,0.8-6.7,3.5-8.7l31.1-29.8V366H587.1
			l-76.8,191.5L423,365.9H310v6.5l36.4,43.8c3.6,3.2,5.4,7.9,4.9,12.7v172.2c1.1,6.2-0.9,12.6-5.3,17.1L305.2,668v6.5h116.1V668
			l-40.9-49.7c-4.4-4.5-6.5-10.8-5.6-17.1v-149l101.9,222.2h11.8L576,452.2v177.1c0,4.7,0,5.6-3.1,8.7l-31.5,30.6v6.5h152.7
			L694.1,675.3L694.1,675.3z"/>
	</g>
	<g>
		<path class="st1" d="M499.8,166.7c183.4,0,332.3,148.9,332.3,332.3S683.2,831.3,499.8,831.3S167.5,682.4,167.5,499
			S316.4,166.7,499.8,166.7z M441.3,675.8c147.1,0,227.5-121.9,227.5-227.5c0-3.5,0-7-0.2-10.3c15.6-11.3,29.2-25.4,40-41.4
			c-14.3,6.3-29.7,10.6-45.9,12.6c16.6-9.9,29.2-25.5,35.2-44.3c-15.4,9.1-32.5,15.8-50.7,19.4c-14.6-15.6-35.3-25.2-58.4-25.2
			c-44.1,0-79.9,35.8-79.9,79.9c0,6.3,0.7,12.4,2.2,18.2c-66.5-3.3-125.3-35.1-164.8-83.6c-6.8,11.8-10.8,25.5-10.8,40.1
			c0,27.7,14.1,52.2,35.6,66.5c-13.1-0.3-25.4-4-36.1-9.9v1c0,38.8,27.5,71,64.2,78.4c-6.6,1.8-13.8,2.8-21.1,2.8
			c-5.1,0-10.1-0.5-15.1-1.5c10.1,31.8,39.6,54.9,74.6,55.5c-27.4,21.4-61.8,34.2-99.3,34.2c-6.5,0-12.8-0.3-19.1-1.2
			C354.1,662.5,396.2,675.8,441.3,675.8L441.3,675.8z"/>
	</g>
	<g id="Layer_3">
		<g class="st2">
			<circle class="st3" cx="497.1" cy="501.7" r="59.4"/>
			<path class="st3" d="M571.4,355.8H422.8c-21.6,0-40.5,6.8-52.7,18.9c-12.2,12.2-18.9,31.1-18.9,52.7V576c0,21.6,6.8,40.5,20.3,54
				c13.5,12.2,31.1,18.9,52.7,18.9h147.3c21.6,0,40.5-6.8,52.7-18.9c13.5-12.2,20.3-31.1,20.3-52.7V428.7c0-21.6-6.8-39.2-18.9-52.7
				C611.9,362.6,594.4,355.8,571.4,355.8z M497.1,593.6c-51.3,0-91.9-41.9-91.9-91.9c0-51.3,41.9-91.9,91.9-91.9
				s93.2,40.5,93.2,91.9S548.4,593.6,497.1,593.6z M593,427.4c-12.2,0-21.6-9.5-21.6-21.6s9.5-21.6,21.6-21.6
				c12.2,0,21.6,9.5,21.6,21.6S605.2,427.4,593,427.4z"/>
			<path class="st3" d="M499.8,166.7c-183.7,0-332.3,148.6-332.3,332.3s148.6,332.3,332.3,332.3S832.2,682.7,832.2,499
				C833.5,315.3,683.5,166.7,499.8,166.7z M676.8,577.4c0,31.1-10.8,58.1-29.7,77s-45.9,28.4-75.7,28.4H424.2
				c-29.7,0-56.7-9.5-75.7-28.4c-20.3-18.9-29.7-45.9-29.7-77V428.7c0-62.1,41.9-105.4,105.4-105.4h148.6
				c31.1,0,56.7,10.8,75.7,29.7c18.9,18.9,28.4,44.6,28.4,75.7C676.8,428.7,676.8,577.4,676.8,577.4z"/>
		</g>
	</g>
	<g id="Layer_4" class="st2">
		<path class="st4" d="M499.8,166.7c-183.6,0-332.3,148.8-332.3,332.3s148.8,332.3,332.3,332.3S832.2,682.6,832.2,499
			S683.4,166.7,499.8,166.7z M672.6,376.9l-59,281.8c-2.4,11.2-13.4,18.4-24.6,16.1c-2.9-0.6-5.7-1.8-8.1-3.6L495,607.7l-52,49.1
			c-2.8,2.7-7.3,2.5-10-0.3l-0.1-0.1l-1.1-1.2l9-87.5l162.9-148.8c1.8-1.6,1.9-4.4,0.3-6.2c-1.4-1.6-3.8-1.9-5.6-0.7L390.1,543.8
			l-89.7-30.1c-6.4-2.1-9.8-9.1-7.7-15.4c1.2-3.5,3.8-6.2,7.3-7.5l351.1-132.2c8.3-3.1,17.7,1.1,20.8,9.4
			C672.9,370.8,673.2,373.9,672.6,376.9z"/>
	</g>
</g>
<g id="Layer_2" class="st0">
	<g class="st2">
		<ellipse class="st4" cx="555.3" cy="477.5" rx="29.3" ry="33.4"/>
		<ellipse class="st4" cx="446.7" cy="477.5" rx="29.3" ry="33.4"/>
		<path class="st4" d="M501,166.7c-162.5,0-294.2,131.7-294.2,294.1S338.5,755,501,755s294.2-131.7,294.2-294.2
			S663.5,166.7,501,166.7z M576.5,594.5l-13.7-18.3c23.2-8,49.5-22.5,72.2-48.6c-27.1,20.6-67.9,41.8-133.7,41.8
			s-106.7-21.4-133.7-41.8c22.6,26.1,48.9,40.6,72.2,48.6L426,594.5c0,0-65.5-0.3-108.6-50.1c7.4-121.8,50.1-183.8,50.1-183.8
			s36.1-29,83.5-33.4l4,8.2c-37.3,8.4-59.6,24.4-79.3,41.9c33.8-17.2,67.2-33.4,125.4-33.4c58.1,0,91.6,16.2,125.4,33.4
			c-19.6-17.6-38.4-31.9-79.3-41.9l4-8.2c45.3,3.4,83.5,33.4,83.5,33.4s42.7,62,50.3,183.8C642,594.1,576.5,594.5,576.5,594.5z"/>
	</g>
</g>
<g id="Layer_3_1_" class="st0">
	<path class="st5" d="M501,166.8c-162.4,0-294.1,131.7-294.1,294.1S338.6,755,501,755s294.1-131.7,294.1-294.1
		S663.4,166.8,501,166.8z M580.3,347.8h-42.1c-21.1,0-25.9,14-25.9,28.7v28.2h64.9l-8.9,56.3h-56v169.7h-55.8V460.9H422v-56.3h34.5
		v-34c0-45.9,13.7-79,64-79h59.8V347.8z"/>
</g>
<g id="Layer_4_1_" class="st0">
	<path class="st6" d="M500,271.7c-118.6,0-214.8,96.2-214.8,214.8S381.4,701.3,500,701.3s214.8-96.2,214.8-214.8
		C714.7,367.9,618.6,271.8,500,271.7z M500,613.8c-10,0-18-8.1-18-18s8.1-18,18-18c10,0,18,8.1,18,18c0,0,0,0,0,0
		C518,605.8,510,613.8,500,613.8C500,613.8,500,613.8,500,613.8z M526.4,387L519,524.4c-0.5,10.1-8.9,18-19,18h0
		c-10.1,0-18.4-7.9-19-18L473.6,387c-0.8-14.6,10.4-27,24.9-27.8c0.5,0,0.9,0,1.4,0h0c14.6,0,26.4,11.8,26.4,26.4
		C526.4,386,526.4,386.5,526.4,387z"/>
</g>
<g id="Layer_5">
	<path class="st7" d="M501,273.4c-117.4,0-212.4,94.9-212.4,212.4S383.6,698.1,501,698.1s212.4-94.9,212.4-212.4
		S618.4,273.4,501,273.4z M603.8,441.7L478,567c-3.9,3.9-8.8,5.9-13.7,5.9c-4.9,0-10.3-2-13.7-5.9l-62.1-61.7
		c-7.8-7.8-7.8-20.1,0-27.9c7.8-7.8,20.1-7.8,27.9,0l48,48l111.6-111.6c7.8-7.8,20.1-7.8,27.9,0
		C611.1,421.6,611.1,434.4,603.8,441.7z"/>
</g>
</svg>
